<?xml version="1.0" encoding="UTF-8"?>
<!DOCTYPE svg PUBLIC "-//W3C//DTD SVG 1.1//EN" "http://www.w3.org/Graphics/SVG/1.1/DTD/svg11.dtd">

<svg xmlns="http://www.w3.org/2000/svg" xml:space="preserve" width="1mm" height="4.9973mm" version="1.1" style="shape-rendering:geometricPrecision; text-rendering:geometricPrecision; image-rendering:optimizeQuality; fill-rule:evenodd; clip-rule:evenodd"
viewBox="0 0 2.94 14.7"
 xmlns:xlink="http://www.w3.org/1999/xlink"
 xmlns:xodm="http://www.corel.com/coreldraw/odm/2003">
 <defs>
  <style type="text/css">
   <![CDATA[
    .fil0 {fill:#99CC99}
    .fil1 {fill:white}
   ]]>
  </style>
 </defs>
 
 <g id="Warstwa_x0020_1">
  <metadata id="CorelCorpID_0Corel-Layer"/>
  <path class="fil1" d="M1.47 11.76c0.81,0 1.47,0.66 1.47,1.47 0,0.81 -0.66,1.47 -1.47,1.47 -0.81,0 -1.47,-0.66 -1.47,-1.47 0,-0.81 0.66,-1.47 1.47,-1.47zm0 -11.76c0.81,0 1.47,0.66 1.47,1.47 0,0.81 -0.66,1.47 -1.47,1.47 -0.81,0 -1.47,-0.66 -1.47,-1.47 0,-0.81 0.66,-1.47 1.47,-1.47zm0 5.92c0.81,0 1.47,0.66 1.47,1.47 0,0.81 -0.66,1.47 -1.47,1.47 -0.81,0 -1.47,-0.66 -1.47,-1.47 0,-0.81 0.66,-1.47 1.47,-1.47z"/>
 </g>
</svg>
